<?xml version="1.0" encoding="utf-8"?>
<!-- Generator: Adobe Illustrator 27.5.0, SVG Export Plug-In . SVG Version: 6.00 Build 0)  -->
<svg version="1.1" xmlns="http://www.w3.org/2000/svg" xmlns:xlink="http://www.w3.org/1999/xlink" x="0px" y="0px"
	 viewBox="0 0 1122 1122" style="enable-background:new 0 0 1122 1122;" xml:space="preserve">
<g id="Bg">
	<g>
		<g>
			<rect style="fill:#FFFFFF;" width="1122" height="1122"/>
		</g>
	</g>
</g>
<g id="Object">
	<g>
		<path style="fill:#616E7D;" d="M727.157,426.086l-40.361,40.353l-60.072,60.082l-41.717,41.717l-52.692,52.698l-41.735,41.72
			l-9.048,9.045l9.575,9.556l356.027-356.033h0.018l-9.574-9.559l-37.695,37.698V249.139c0-3.664-1.483-7.245-4.073-9.838
			c-2.59-2.59-6.179-4.073-9.84-4.073H319.112c-3.661,0-7.25,1.482-9.838,4.073c-2.593,2.593-4.076,6.173-4.076,9.838v623.722
			c0,3.664,1.483,7.245,4.076,9.835c2.587,2.59,6.176,4.077,9.838,4.077h381.815c3.661,0,7.211-1.462,9.801-4.04l42.897-42.616
			l0.055-0.057l42.143-42.325c2.575-2.6,4.058-6.155,4.058-9.817V467.001l-27.839,27.836v265.255h-88.496
			c-3.661,0-7.244,1.489-9.838,4.079c-2.587,2.587-4.073,6.168-4.073,9.835v84.94H333.023V263.049h439.019v118.142L727.157,426.086z
			 M697.456,787.917h74.099l-74.099,71.526V787.917z"/>
		<rect x="395.196" y="334.76" style="fill:#82BFAB;" width="337.499" height="40.355"/>
		<polygon style="fill:#82BFAB;" points="357.035,466.438 686.796,466.438 727.157,426.086 357.035,426.086 		"/>
		<polygon style="fill:#82BFAB;" points="358.327,568.236 585.006,568.236 626.724,526.52 358.327,526.52 		"/>
		<polygon style="fill:#82BFAB;" points="746.736,568.236 746.736,526.52 740.372,526.52 698.64,568.236 		"/>
		<polygon style="fill:#82BFAB;" points="746.736,662.655 746.736,620.935 645.948,620.935 604.231,662.655 		"/>
		<polygon style="fill:#82BFAB;" points="358.327,662.655 490.579,662.655 532.314,620.935 358.327,620.935 		"/>
		<polygon style="fill:#82BFAB;" points="436.232,757.07 437.587,754.325 456.736,715.362 358.327,715.362 358.327,757.07 		"/>
		<path style="fill:#82BFAB;" d="M526.982,737.473l-39.895,19.596h163.118v-41.707H551.52l-13.142,13.157l-0.021-0.003v0.003
			l-9.553-9.559l-3.607-3.598H514.63l13.741,13.744c1.202,1.192,1.725,2.869,1.465,4.539
			C529.555,735.316,528.501,736.722,526.982,737.473z"/>
		<polygon style="fill:#FFFFFF;" points="771.555,787.917 697.456,787.917 697.456,859.443 		"/>
		<path style="fill:#FFFFFF;" d="M727.157,426.086l44.885-44.894V263.049H333.023v595.898h336.612v-84.94
			c0-3.668,1.485-7.248,4.073-9.835c2.594-2.59,6.176-4.079,9.838-4.079h88.496V494.837l27.839-27.836l94.521-94.521L719.91,546.966
			l20.462-20.447h6.364v41.717H698.64l-160.282,160.28l0.021,0.003l13.142-13.157h98.685v41.707H487.087l-31.35,15.4l-21.945,10.779
			c-2.009,0.983-4.412,0.584-5.985-0.993c-1.58-1.591-1.973-3.988-0.998-5.995l9.423-19.191h-77.905v-41.707h98.41l15.844-32.279
			c0.751-1.528,2.157-2.578,3.825-2.854c1.673-0.272,3.362,0.26,4.545,1.453l33.68,33.68h10.566l3.607,3.598l356.042-356.033
			l-37.713-37.704L491.106,681.255l-9.575-9.556l9.048-9.045H358.327v-41.72h173.988l52.692-52.698h-226.68V526.52h268.397
			l60.072-60.082H357.035v-40.353H727.157z M395.196,334.76h337.499v40.355H395.196V334.76z M604.231,662.655l41.716-41.72h100.788
			v41.72H604.231z M852.447,332.37l25.249,25.243L521.648,713.656l-25.249-25.249L852.447,332.37z"/>
		<polygon style="fill:#FFFFFF;" points="698.64,568.236 698.64,568.236 719.91,546.966 		"/>
		
			<rect x="435.286" y="505.158" transform="matrix(0.7071 -0.7071 0.7071 0.7071 -168.5942 638.9955)" style="fill:#AAD4C8;" width="503.522" height="35.705"/>
		<polygon style="fill:#616E7D;" points="538.357,728.519 538.357,728.516 894.403,372.479 884.846,362.926 528.804,718.96 		"/>
		<path style="fill:#82BFAB;" d="M480.95,681.682c-1.183-1.192-2.872-1.725-4.545-1.453c-1.668,0.276-3.074,1.326-3.825,2.854
			l-15.844,32.279l-19.149,38.963l18.15,18.144l31.35-15.4l39.895-19.596c1.519-0.751,2.573-2.157,2.854-3.828
			c0.26-1.671-0.263-3.347-1.465-4.539l-13.741-13.744L480.95,681.682z"/>
		<path style="fill:#616E7D;" d="M426.809,776.261c-0.975,2.007-0.581,4.403,0.998,5.995c1.574,1.577,3.976,1.976,5.985,0.993
			l21.945-10.779l-18.15-18.144l-1.355,2.744L426.809,776.261z"/>
		<path style="fill:#616E7D;" d="M872.213,281.03l-6.555,6.554l-11.075,11.075l-11.88,11.877l56.823,56.82l11.886-11.887
			l11.057-11.063l6.57-6.563c15.693-15.693,15.675-41.13,0-56.814C913.343,265.337,887.906,265.331,872.213,281.03z"/>
	</g>
</g>
</svg>
